<mxfile host="app.diagrams.net" modified="2024-05-17T00:37:44.176Z" agent="Mozilla/5.0 (Windows NT 10.0; Win64; x64) AppleWebKit/537.36 (KHTML, like Gecko) Chrome/124.0.0.0 Safari/537.36 Edg/124.0.0.0" version="24.4.3" etag="tJEPBcz8yaNwELIAFo6q" type="github">
  <diagram name="StrÃ¡nka-1" id="s3hBo5GiVauqnpyUISQr">
    <mxGraphModel>
      <root>
        <mxCell id="0" />
        <mxCell id="1" parent="0" />
      </root>
    </mxGraphModel>
  </diagram>
</mxfile>
